<?xml version="1.0" encoding="utf-8"?>
<!-- Generator: Adobe Illustrator 22.0.2, SVG Export Plug-In . SVG Version: 6.00 Build 0)  -->
<svg version="1.1" id="layer_1" xmlns="http://www.w3.org/2000/svg" xmlns:xlink="http://www.w3.org/1999/xlink" x="0px" y="0px"
	 viewBox="0 0 600 100" style="enable-background:new 0 0 600 100;" xml:space="preserve">
<style type="text/css">
	.st0{fill:none;}
	.st1{fill:#FFFFFF;}
</style>
<g>
	<rect x="-90" y="-2.9" class="st0" width="781" height="105.9"/>
	<path class="st1" d="M2.3,8.3h37.3v16.9H24.2v16h13.6v16.1H24.2v35.5h-22V8.3z"/>
	<path class="st1" d="M44.8,8.3h15.6c10.4,0,17.4,0.4,21.1,1.2c3.7,0.8,6.7,2.8,9,6.1c2.3,3.3,3.5,8.5,3.5,15.8
		c0,6.6-0.8,11-2.5,13.3c-1.6,2.3-4.9,3.6-9.7,4.1c4.4,1.1,7.3,2.5,8.8,4.3c1.5,1.8,2.4,3.5,2.8,5c0.4,1.5,0.5,5.7,0.5,12.5v22.3
		H73.5V64.8c0-4.5-0.4-7.3-1.1-8.4c-0.7-1.1-2.6-1.6-5.6-1.6v38.1h-22V8.3z M66.8,22.8v18.8c2.5,0,4.2-0.3,5.2-1
		c1-0.7,1.5-2.9,1.5-6.6v-4.6c0-2.7-0.5-4.4-1.4-5.3S69.4,22.8,66.8,22.8z"/>
	<path class="st1" d="M140.5,8.3l12.6,84.6h-22.5l-1.2-15.2h-7.9l-1.3,15.2H97.5l11.2-84.6H140.5z M128.8,62.7
		c-1.1-9.6-2.2-21.4-3.4-35.5c-2.2,16.2-3.6,28-4.2,35.5H128.8z"/>
	<path class="st1" d="M205.9,8.3v84.6h-19.3l-11.4-38.5v38.5h-18.4V8.3h18.4l12.3,38.1V8.3H205.9z"/>
	<path class="st1" d="M267.2,8.3l-12.6,38.2l13.8,46.4h-22.7l-8.9-36.3v36.3h-22V8.3h22v32.9l9.8-32.9H267.2z"/>
	<path class="st1" d="M294.2,8.3V76h13.4v16.9h-35.4V8.3H294.2z"/>
	<path class="st1" d="M352.8,8.3l-16,54v30.6h-20.4V62.3l-15.5-54h20.2c3.2,16.5,4.9,27.6,5.3,33.3c1.2-9,3.3-20.1,6.1-33.3H352.8z"
		/>
	<path class="st1" d="M397.4,8.3V76h13.4v16.9h-35.4V8.3H397.4z"/>
	<path class="st1" d="M456,8.3l-16,54v30.6h-20.4V62.3l-15.5-54h20.2c3.2,16.5,4.9,27.6,5.3,33.3c1.2-9,3.3-20.1,6.1-33.3H456z"/>
	<path class="st1" d="M481.8,8.3v84.6h-22V8.3H481.8z"/>
	<path class="st1" d="M539.7,8.3v84.6h-19.3L509,54.4v38.5h-18.4V8.3H509l12.3,38.1V8.3H539.7z"/>
	<path class="st1" d="M599,39.4h-22v-7.7c0-4.8-0.2-7.9-0.6-9.1c-0.4-1.2-1.4-1.8-3-1.8c-1.4,0-2.3,0.5-2.8,1.6
		c-0.5,1-0.7,3.7-0.7,8V71c0,3.8,0.2,6.3,0.7,7.5c0.5,1.2,1.5,1.8,2.9,1.8c1.6,0,2.7-0.7,3.3-2c0.6-1.4,0.9-4,0.9-7.9v-10h-4.4V47.5
		H599v45.4h-13.8l-2-6.1c-1.5,2.6-3.4,4.6-5.7,5.9c-2.3,1.3-5,2-8.1,2c-3.7,0-7.2-0.9-10.4-2.7c-3.2-1.8-5.7-4-7.3-6.7
		c-1.7-2.6-2.7-5.4-3.1-8.3c-0.4-2.9-0.6-7.3-0.6-13.1V38.8c0-8.1,0.4-13.9,1.3-17.6c0.9-3.7,3.4-7,7.5-10.1c4.1-3,9.5-4.6,16-4.6
		c6.4,0,11.8,1.3,16,4c4.2,2.6,7,5.8,8.3,9.4c1.3,3.6,1.9,8.9,1.9,15.9V39.4z"/>
</g>
<g>
</g>
<g>
</g>
<g>
</g>
<g>
</g>
<g>
</g>
<g>
</g>
<g>
</g>
<g>
</g>
<g>
</g>
<g>
</g>
<g>
</g>
<g>
</g>
<g>
</g>
<g>
</g>
<g>
</g>
</svg>
