<?xml version="1.0" encoding="utf-8"?>
<!-- Generator: Adobe Illustrator 22.0.2, SVG Export Plug-In . SVG Version: 6.00 Build 0)  -->
<svg version="1.1" id="layer_1" xmlns="http://www.w3.org/2000/svg" xmlns:xlink="http://www.w3.org/1999/xlink" x="0px" y="0px"
	 viewBox="0 0 780 150" style="enable-background:new 0 0 780 150;" xml:space="preserve">
<style type="text/css">
	.st0{fill:none;}
	.st1{fill:#FF0000;}
</style>
<g>
	<rect x="4.1" y="15.6" class="st0" width="770.9" height="115.4"/>
	<path class="st1" d="M52.3,28.3h42.1v19.1H77.2v18.1h15.4v18.2H77.2v40.2H52.3V28.3z"/>
	<path d="M100.4,28.3H118c11.7,0,19.7,0.5,23.8,1.4c4.2,0.9,7.5,3.2,10.2,6.9c2.6,3.7,3.9,9.7,3.9,17.8c0,7.4-0.9,12.4-2.8,15
		c-1.9,2.6-5.5,4.1-10.9,4.6c4.9,1.2,8.2,2.9,9.9,4.9c1.7,2,2.7,3.9,3.2,5.6c0.4,1.7,0.6,6.4,0.6,14.1v25.2h-23.1V92.1
		c0-5.1-0.4-8.3-1.2-9.5c-0.8-1.2-2.9-1.8-6.4-1.8v43.1h-24.9V28.3z M125.3,44.6v21.3c2.8,0,4.8-0.4,5.9-1.2
		c1.1-0.8,1.7-3.3,1.7-7.5V52c0-3-0.5-5-1.6-6C130.2,45.1,128.2,44.6,125.3,44.6z"/>
	<path d="M208.6,28.3l14.2,95.7h-25.4l-1.3-17.2h-8.9l-1.5,17.2H160l12.7-95.7H208.6z M195.4,89.8c-1.3-10.8-2.5-24.2-3.8-40.2
		c-2.5,18.3-4.1,31.7-4.8,40.2H195.4z"/>
	<path d="M282.6,28.3v95.7h-21.8l-12.9-43.5v43.5H227V28.3h20.8l13.9,43.1V28.3H282.6z"/>
	<path d="M351.9,28.3l-14.3,43.2l15.6,52.5h-25.7l-10.1-41v41h-24.9V28.3h24.9v37.2l11.1-37.2H351.9z"/>
	<path d="M382.4,28.3v76.5h15.1v19.1h-40V28.3H382.4z"/>
	<path d="M448.7,28.3l-18.1,61v34.6h-23V89.3l-17.5-61h22.8c3.6,18.7,5.6,31.2,6,37.7c1.4-10.2,3.7-22.8,6.9-37.7H448.7z"/>
	<path class="st1" d="M499.1,28.3v76.5h15.1v19.1h-40V28.3H499.1z"/>
	<path d="M565.4,28.3l-18.1,61v34.6h-23V89.3l-17.5-61h22.8c3.6,18.7,5.6,31.2,6,37.7c1.4-10.2,3.7-22.8,6.9-37.7H565.4z"/>
	<path d="M594.5,28.3v95.7h-24.9V28.3H594.5z"/>
	<path d="M660.1,28.3v95.7h-21.8l-12.9-43.5v43.5h-20.8V28.3h20.8l13.9,43.1V28.3H660.1z"/>
	<path d="M727.1,63.5h-24.9v-8.7c0-5.5-0.2-8.9-0.7-10.3c-0.5-1.4-1.6-2.1-3.4-2.1c-1.5,0-2.6,0.6-3.1,1.8c-0.6,1.2-0.8,4.2-0.8,9.1
		v45.9c0,4.3,0.3,7.1,0.8,8.5c0.6,1.4,1.7,2,3.3,2c1.8,0,3-0.8,3.7-2.3c0.6-1.5,1-4.5,1-9V87.1h-5V72.6h29.1v51.3h-15.6l-2.3-6.9
		c-1.7,3-3.8,5.2-6.4,6.6c-2.6,1.5-5.6,2.2-9.1,2.2c-4.2,0-8.1-1-11.7-3c-3.6-2-6.4-4.5-8.3-7.5s-3.1-6.1-3.5-9.4
		c-0.5-3.3-0.7-8.2-0.7-14.8V62.7c0-9.1,0.5-15.8,1.5-19.9s3.8-7.9,8.5-11.4c4.7-3.4,10.7-5.2,18.1-5.2c7.3,0,13.3,1.5,18.1,4.5
		c4.8,3,7.9,6.5,9.4,10.7c1.5,4.1,2.2,10.1,2.2,17.9V63.5z"/>
</g>
<g>
</g>
<g>
</g>
<g>
</g>
<g>
</g>
<g>
</g>
<g>
</g>
<g>
</g>
<g>
</g>
<g>
</g>
<g>
</g>
<g>
</g>
<g>
</g>
<g>
</g>
<g>
</g>
<g>
</g>
</svg>
