<?xml version="1.0" encoding="utf-8"?>
<!-- Generator: Adobe Illustrator 22.0.2, SVG Export Plug-In . SVG Version: 6.00 Build 0)  -->
<svg version="1.1" id="图层_1" xmlns="http://www.w3.org/2000/svg" xmlns:xlink="http://www.w3.org/1999/xlink" x="0px" y="0px"
	 viewBox="0 0 100 60" style="enable-background:new 0 0 100 60;" xml:space="preserve">
<style type="text/css">
	.st0{fill:#FFFFFF;}
</style>
<g>
	<path class="st0" d="M0,7l0,46c0,3.9,3.1,7,7,7h86c3.9,0,7-3.1,7-7V7c0-3.9-3.1-7-7-7L7,0C3.1,0,0,3.1,0,7z M31,26.6l18.3-16.3
		c0.5-0.5,1.4-0.5,1.9,0l18.3,16.3c1,0.8,0.4,2.3-0.9,2.3h-3.8l0,19.2c0,1.1-0.9,1.9-2,1.9h-6.1h-0.4H44.5H44h-6c-1.1,0-2-0.9-2-1.9
		V28.9h-4.1C30.7,28.9,30.1,27.5,31,26.6z"/>
	<polygon class="st0" points="44.5,32.2 44.5,49.8 56.3,46 56.3,32.2 	"/>
</g>
</svg>
