<?xml version="1.0" encoding="utf-8"?>
<!-- Generator: Adobe Illustrator 22.0.2, SVG Export Plug-In . SVG Version: 6.00 Build 0)  -->
<svg version="1.1" id="layer1" xmlns="http://www.w3.org/2000/svg" xmlns:xlink="http://www.w3.org/1999/xlink" x="0px" y="0px"
	 viewBox="0 0 100 60" style="enable-background:new 0 0 100 60;" xml:space="preserve">
<style type="text/css">
	.st0{fill:none;}
	.st1{fill:#FFFFFF;}
</style>
<g>
	<path d="M16,55.5C9.7,55.5,4.5,50.3,4.5,44V15C4.5,8.7,9.7,3.5,16,3.5h68c6.3,0,11.5,5.2,11.5,11.5v29c0,6.3-5.2,11.5-11.5,11.5H16
		z"/>
	<path d="M84,4c6.1,0,11,4.9,11,11v29c0,6.1-4.9,11-11,11H16C9.9,55,5,50.1,5,44V15C5,8.9,9.9,4,16,4H84 M84,3H16C9.4,3,4,8.4,4,15
		v29c0,6.6,5.4,12,12,12h68c6.6,0,12-5.4,12-12V15C96,8.4,90.6,3,84,3L84,3z"/>
</g>
<g>
	<rect x="15.7" y="7.8" class="st0" width="69.3" height="43.2"/>
	<path class="st1" d="M18.6,12.3h25.3v6.8H33.6v6.4h9.2v6.5h-9.2v14.3H18.6V12.3z"/>
	<path class="st1" d="M73.3,12.3v27.2h9.1v6.8h-24v-34H73.3z"/>
</g>
<g>
</g>
<g>
</g>
<g>
</g>
<g>
</g>
<g>
</g>
<g>
</g>
<g>
</g>
<g>
</g>
<g>
</g>
<g>
</g>
<g>
</g>
<g>
</g>
<g>
</g>
<g>
</g>
<g>
</g>
</svg>
