<?xml version="1.0" encoding="UTF-8"?><svg xmlns="http://www.w3.org/2000/svg" xmlns:xlink="http://www.w3.org/1999/xlink" version="1.1" id="Layer_1" x="0px" y="0px" viewBox="0 0 48 48" xml:space="preserve"><path d="M44 24c0 11.047-8.953 20-20 20S4 35.047 4 24 12.953 4 24 4s20 8.953 20 20z" fill="#FF3D00"/><path d="M26 16.199c-.602-.598-1.5-.898-2.5-1.098-.398-.5-1-1-1.898-1.5-1.602-.801-3.5-1.203-5.301-.902h-.402c-.098 0-.199.102-.398.102.199 0 1 .398 1.602.598-.301.203-.801.203-1.102.402h-.102l-.2.199c-.098.199-.199.398-.199.5 1.301-.102 3.199 0 4.602.398-1.102.102-2.102.403-2.801.801-.5.301-1 .602-1.301 1.102-1.199 1.301-1.699 3.5-1.301 5.898.5 2.699 2.402 11.402 3.402 16.301l.253 1.604S21.874 41 24 41c1.19 0 3.229.312 3.688-.188-.053.01-.604-.625-.789-1.113-.5-1-1-1.898-1.398-2.598-1.199-2.5-2.5-5.902-1.898-8.102.098-.398.098-2.102.398-2.301 2.602-1.699 2.398-.098 3.5-.801.5-.398 1-.898 1.199-1.5.698-2.295-.899-6.397-2.7-8.198z" fill="#FFF"/><circle cx="24" cy="24" r="17" fill="none" stroke="#FFF" stroke-width="2" stroke-miterlimit="10"/><path d="M19 21.102c-.602 0-1.199.5-1.199 1.199 0 .598.5 1.199 1.199 1.199.602 0 1.199-.5 1.199-1.199-.097-.602-.597-1.199-1.199-1.199zm.5 1.097c-.199 0-.301-.098-.301-.301 0-.199.102-.297.301-.297s.301.098.301.297c0 .204-.199.301-.301.301zm7.301-1.597a1 1 0 0 0-1 1c0 .598.5 1 1 1 .598 0 1-.5 1-1s-.5-1-1-1zm.398.898c-.098 0-.301-.102-.301-.301 0-.098.102-.301.301-.301.102 0 .301.102.301.301s-.102.301-.301.301zm-7.898-2.602s-.902-.398-1.699.102c-.902.5-.801 1.102-.801 1.102s-.5-1 .801-1.5c1.097-.5 1.699.296 1.699.296m8.097-.097s-.598-.402-1.098-.402c-1 0-1.301.5-1.301.5s.199-1.098 1.5-.898c.603.198.899.8.899.8" fill="#0277BD"/><path d="M23.301 35.699S19 33.398 18.899 34.301c-.098.898 0 4.699.5 5s4.102-1.902 4.102-1.902l-.2-1.7zM25 35.602s2.898-2.203 3.602-2.102c.598.102.797 4.699.199 4.898-.602.203-3.902-1.199-3.902-1.199L25 35.602z" fill="#8BC34A"/><path d="M22.5 35.699c0 1.5-.199 2.102.398 2.301.602.102 1.902 0 2.301-.301.402-.301.102-2.199-.098-2.598-.101-.3-2.601.001-2.601.598" fill="#689F38"/><path d="M22.301 26.801c.098-.699 2-2.102 3.301-2.199 1.297-.102 1.699-.102 2.797-.301 1.102-.301 3.902-1 4.703-1.301.797-.398 4.098.199 1.797 1.5-1 .602-3.699 1.602-5.699 2.199-1.898.602-3.098-.598-3.801.402-.5.797-.098 1.797 2.203 2 3.098.297 6.199-1.402 6.5-.5.297.898-2.703 2-4.602 2.098-1.801 0-5.602-1.199-6.102-1.598-.5-.402-1.199-1.3-1.097-2.3" fill="#FFCA28"/><metadata><rdf:RDF xmlns:rdf="http://www.w3.org/1999/02/22-rdf-syntax-ns#" xmlns:rdfs="http://www.w3.org/2000/01/rdf-schema#" xmlns:dc="http://purl.org/dc/elements/1.1/"><rdf:Description about="https://iconscout.com/legal#licenses" dc:title="duckduckgo" dc:description="duckduckgo" dc:publisher="Iconscout" dc:date="2017-12-15" dc:format="image/svg+xml" dc:language="en"><dc:creator><rdf:Bag><rdf:li>Icons8</rdf:li></rdf:Bag></dc:creator></rdf:Description></rdf:RDF></metadata></svg>